<?xml version="1.0" encoding="UTF-8" standalone="no"?>
<svg
   xmlns:dc="http://purl.org/dc/elements/1.1/"
   xmlns:cc="http://creativecommons.org/ns#"
   xmlns:rdf="http://www.w3.org/1999/02/22-rdf-syntax-ns#"
   xmlns:svg="http://www.w3.org/2000/svg"
   xmlns="http://www.w3.org/2000/svg"
   xmlns:sodipodi="http://sodipodi.sourceforge.net/DTD/sodipodi-0.dtd"
   xmlns:inkscape="http://www.inkscape.org/namespaces/inkscape"
   inkscape:version="1.0 (4035a4fb49, 2020-05-01)"
   sodipodi:docname="ohif-logo1.svg"
   id="svg124"
   version="1.1"
   strokeMiterlimit="10"
   stroke-width="2.5"
   fill="none"
   stroke="currentColor"
   height="1em"
   width="1em"
   aria-labelledby="title"
   viewBox="0 0 47 47">
  <metadata
     id="metadata130">
    <rdf:RDF>
      <cc:Work
         rdf:about="">
        <dc:format>image/svg+xml</dc:format>
        <dc:type
           rdf:resource="http://purl.org/dc/dcmitype/StillImage" />
        <dc:title>OHIF Logo</dc:title>
      </cc:Work>
    </rdf:RDF>
  </metadata>
  <defs
     id="defs128" />
  <sodipodi:namedview
     inkscape:current-layer="svg124"
     inkscape:window-maximized="1"
     inkscape:window-y="-9"
     inkscape:window-x="-9"
     inkscape:cy="32.662483"
     inkscape:cx="-4.3338481"
     inkscape:zoom="8.8297872"
     showgrid="false"
     id="namedview126"
     inkscape:window-height="1001"
     inkscape:window-width="1920"
     inkscape:pageshadow="2"
     inkscape:pageopacity="0"
     guidetolerance="10"
     gridtolerance="10"
     objecttolerance="10"
     borderopacity="1"
     bordercolor="#666666"
     pagecolor="#ffffff" />
  <title
     id="title">OHIF Logo</title>
  <g
     inkscape:export-ydpi="302.74731"
     inkscape:export-xdpi="302.74731"
     transform="matrix(0.01052557,0,0,-0.01047486,0.35082414,47.113197)"
     fill="#000000"
     stroke="none"
     id="g88">
    <path
       d="m 2039,4456 c -2,-2 -56,-11 -119,-20 C 1184,4330 556,3870 230,3198 108,2945 46,2718 15,2405 -1,2247 -1,2204 21,1995 140,869 1096,11 2233,10 c 345,0 657,71 966,221 253,122 437,256 636,460 406,418 625,958 625,1544 0,607 -247,1185 -685,1603 -424,405 -969,622 -1560,622 -94,0 -174,-2 -176,-4 z m 386,-86 c 905,-84 1656,-718 1885,-1593 53,-201 65,-301 65,-547 0,-191 -4,-245 -24,-354 C 4270,1421 4073,1043 3750,720 3508,478 3247,314 2927,205 2078,-87 1129,187 567,885 265,1260 108,1682 93,2161 c -9,277 20,484 103,739 308,946 1240,1561 2229,1470 z"
       id="path54" />
    <path
       d="M 2125,4334 C 1762,4308 1449,4213 1162,4042 313,3537 -71,2515 236,1580 485,822 1131,277 1925,153 c 137,-21 458,-24 595,-4 463,66 906,291 1226,622 254,263 434,585 524,933 51,196 64,311 64,536 0,232 -20,374 -79,580 -205,710 -783,1269 -1502,1451 -182,46 -467,75 -628,63 z m -375,-152 c 0,-27 -20,-42 -57,-42 -18,0 -33,-4 -33,-10 0,-5 -7,-10 -15,-10 -8,0 -15,5 -15,12 0,22 33,48 61,48 15,0 31,5 34,10 10,16 25,11 25,-8 z m 395,-17 c 0,-15 -8,-21 -32,-23 l -32,-3 2,-87 c 2,-87 2,-87 -24,-90 -24,-3 -27,1 -33,44 -3,26 -6,64 -6,85 0,38 -1,39 -35,39 -30,0 -35,3 -35,25 0,23 4,24 63,28 114,7 132,4 132,-18 z m 97,-17 c 3,-40 5,-43 36,-46 32,-3 32,-3 32,42 0,46 0,46 35,46 h 35 v -110 -110 h -35 c -35,0 -35,0 -35,45 0,45 0,45 -35,45 -35,0 -35,0 -35,-45 0,-43 -1,-45 -30,-45 h -30 v 110 110 h 29 c 28,0 30,-3 33,-42 z m 256,24 c 10,-7 10,-23 1,-80 -13,-80 -5,-102 37,-102 30,0 32,4 46,95 11,70 14,76 32,71 12,-3 26,-6 32,-6 8,0 8,-23 -2,-82 -11,-69 -18,-87 -40,-107 -23,-19 -35,-22 -72,-18 -24,3 -56,14 -71,25 -24,18 -26,25 -25,88 1,113 17,144 62,116 z m 373,-21 c 4,-3 10,-16 14,-28 8,-27 -7,-30 -31,-6 -10,11 -29,16 -46,14 -34,-3 -37,12 -5,27 21,10 55,7 68,-7 z m -1090,-91 c -15,-55 -17,-77 -9,-106 7,-28 7,-39 -4,-45 -29,-19 -47,-9 -58,30 -7,28 -26,52 -65,86 -30,25 -55,50 -55,55 0,5 14,11 31,15 26,6 36,2 64,-25 36,-35 39,-33 49,22 5,28 13,39 34,46 15,5 28,5 30,1 2,-5 -6,-40 -17,-79 z m 1048,39 c 36,-13 38,-19 45,-146 5,-98 4,-99 -41,-87 -16,4 -23,14 -23,30 0,19 -8,26 -41,36 -37,10 -43,10 -54,-6 -9,-12 -20,-15 -39,-10 -14,3 -26,10 -26,14 0,8 138,180 144,180 2,0 17,-5 35,-11 z m -1294,-89 c -8,-30 -15,-56 -15,-57 0,-2 25,-19 55,-39 30,-20 55,-40 55,-44 0,-5 -14,-13 -31,-19 -29,-10 -36,-8 -80,25 -27,20 -49,33 -49,30 0,-3 7,-24 17,-47 16,-40 15,-42 -2,-56 -11,-7 -24,-12 -29,-10 -6,2 -29,46 -52,99 l -42,96 25,11 c 32,15 30,16 51,-26 l 19,-36 13,52 c 10,43 17,54 44,65 17,7 32,12 33,12 1,-1 -4,-26 -12,-56 z m 1593,-31 c 19,-8 21,-12 12,-30 -8,-14 -17,-18 -28,-14 -44,18 -47,16 -77,-55 -16,-40 -33,-74 -36,-76 -4,-2 -19,0 -33,6 -29,11 -29,7 18,112 l 26,58 -30,15 c -26,13 -29,19 -20,35 10,18 13,18 78,-11 37,-17 77,-35 90,-40 z M 1260,3815 c 34,-47 60,-91 57,-98 -3,-7 -18,-20 -34,-29 -28,-16 -29,-16 -102,28 -77,48 -78,47 -19,-33 l 38,-52 -22,-15 c -12,-8 -25,-13 -29,-10 -4,2 -34,41 -65,86 l -58,81 30,23 c 16,13 34,24 39,24 6,0 41,-18 78,-40 37,-21 64,-34 60,-27 -4,7 -22,34 -41,60 -33,46 -34,48 -17,67 10,11 19,20 21,20 1,0 30,-38 64,-85 z m 1508,40 c 2,-2 1,-12 -2,-23 -5,-14 -13,-18 -27,-15 -24,7 -31,17 -23,37 4,12 13,15 28,10 11,-4 23,-8 24,-9 z m 575,-9 c 43,-17 87,-71 87,-104 0,-39 -35,-90 -66,-98 -24,-6 -25,-8 -10,-19 15,-11 13,-45 -3,-45 -3,0 -35,19 -71,43 -72,47 -95,82 -85,128 11,48 67,105 108,108 4,1 22,-5 40,-13 z M 948,3738 c -3,-7 -14,-14 -25,-16 -11,-2 -25,-14 -31,-28 -7,-13 -16,-24 -22,-24 -16,0 -12,42 7,62 18,21 77,25 71,6 z m 57,-15 c 4,-13 -4,-28 -30,-52 -32,-28 -35,-35 -23,-47 12,-12 19,-10 48,15 31,26 37,28 52,14 15,-13 13,-17 -20,-48 -31,-28 -34,-35 -23,-49 12,-14 17,-12 53,20 38,34 40,34 54,17 12,-16 10,-21 -24,-51 -20,-18 -49,-42 -64,-53 l -27,-20 -70,83 c -39,45 -69,83 -68,84 1,1 29,25 62,53 33,28 63,51 66,51 4,0 10,-8 14,-17 z m 2530,-33 c 17,-19 16,-21 -34,-76 -28,-30 -51,-61 -51,-67 0,-14 30,-47 44,-47 6,0 36,26 68,57 l 58,57 22,-22 23,-22 -62,-62 c -48,-48 -68,-61 -91,-61 -57,0 -115,57 -115,113 0,20 15,47 52,89 29,34 56,61 60,61 5,0 16,-9 26,-20 z M 902,3513 c 73,-72 76,-78 61,-95 -9,-10 -21,-18 -27,-18 -6,0 -43,32 -83,72 -71,70 -71,71 -55,94 9,13 19,24 22,24 2,0 39,-35 82,-77 z m 211,-45 c -15,-17 -18,-17 -32,-4 -13,14 -13,18 4,36 18,20 20,20 32,4 11,-15 10,-21 -4,-36 z m -300,-54 c 59,-98 61,-112 23,-143 -11,-10 -35,-5 -117,24 -57,20 -105,38 -108,40 -2,3 6,16 18,29 l 23,25 52,-21 c 28,-11 61,-24 73,-29 19,-7 16,2 -21,59 -42,64 -43,67 -27,89 9,12 18,23 21,23 3,0 31,-43 63,-96 z m 2458,68 c 14,-16 16,-142 20,-1143 l 4,-1124 -503,-5 -504,-5 -28,-32 c -16,-18 -32,-49 -35,-70 -3,-21 -8,-48 -11,-60 l -4,-23 h -501 c -420,0 -503,2 -515,14 -12,12 -14,175 -14,1120 v 1106 l 210,1 c 116,1 215,3 220,4 6,1 105,3 220,4 204,1 210,2 210,21 0,59 56,136 125,173 35,19 61,22 225,27 102,4 338,7 525,8 319,2 342,1 356,-16 z m 559,-1 c 5,-11 10,-32 10,-46 0,-35 -24,-28 -28,8 -2,18 -9,27 -22,27 -10,0 -20,7 -24,15 -9,24 51,20 64,-4 z m -52,-41 22,-29 -56,-102 -57,-101 -24,25 c -21,21 -23,27 -12,44 10,17 8,25 -12,52 -19,26 -29,31 -49,28 -18,-4 -30,1 -43,18 l -17,24 107,35 c 60,19 111,35 114,35 3,1 15,-12 27,-29 z m 137,-202 c 4,-11 -11,-42 -42,-85 l -48,-68 50,29 c 28,16 58,34 67,40 14,8 21,6 32,-9 9,-11 15,-22 15,-25 1,-6 -175,-110 -186,-110 -5,0 -17,15 -27,34 l -18,34 47,66 c 26,36 44,66 41,66 -3,0 -31,-16 -63,-35 -45,-27 -60,-32 -70,-22 -25,26 -15,38 72,91 l 90,55 17,-22 c 10,-12 20,-30 23,-39 z M 578,3171 c 19,-12 -5,-59 -32,-63 -14,-2 -22,-11 -24,-30 -6,-51 95,-91 119,-47 7,15 8,24 0,32 -7,7 -5,19 5,39 15,29 16,29 35,12 33,-30 23,-90 -24,-141 -43,-48 -153,-17 -185,51 -12,24 -12,34 3,72 16,42 56,84 79,84 6,0 17,-4 24,-9 z m -61,-242 c 69,-26 97,-87 70,-152 -28,-66 -97,-88 -165,-53 -63,32 -76,112 -29,172 32,41 73,53 124,33 z m 3568,-36 c 28,-69 24,-114 -11,-127 -24,-9 -28,-2 -29,51 0,28 -5,48 -12,50 -10,4 -13,-11 -13,-53 0,-64 -18,-94 -56,-94 -38,0 -54,11 -74,51 -27,51 -26,93 2,119 l 23,21 15,-32 c 12,-25 12,-33 3,-36 -17,-6 -16,-38 0,-52 21,-16 27,-3 27,54 0,52 13,75 50,87 20,7 66,-17 75,-39 z M 660,2775 c 0,-28 -12,-43 -31,-38 -19,5 -24,20 -13,46 6,18 44,11 44,-8 z m 3484,-91 c 4,-15 6,-27 4,-29 -2,-1 -37,-10 -80,-19 -78,-17 -94,-31 -83,-66 9,-28 30,-31 106,-15 39,8 72,15 75,15 2,0 4,-9 4,-21 0,-12 8,-23 20,-26 11,-3 20,-12 20,-19 0,-20 -27,-29 -45,-14 -11,9 -27,9 -65,1 -78,-17 -99,-14 -131,18 -24,25 -29,38 -29,79 0,68 20,91 95,107 91,20 102,19 109,-11 z M 445,2664 c 49,-8 92,-17 94,-19 2,-2 0,-16 -3,-31 -7,-25 -10,-26 -52,-20 -31,4 -44,2 -44,-7 0,-6 -3,-21 -6,-33 -5,-18 1,-22 38,-30 35,-8 42,-13 40,-29 -6,-42 -7,-42 -113,-23 -56,10 -104,20 -106,22 -2,2 -1,16 3,31 6,25 9,27 50,20 39,-6 44,-4 44,14 0,10 3,26 6,34 4,11 -5,17 -35,22 -37,6 -41,10 -41,36 0,35 2,35 125,13 z m 3467,-99 c 6,-28 1,-35 -23,-35 -20,0 -33,41 -16,52 22,14 35,8 39,-17 z M 445,2183 c 43,7 45,-3 4,-27 -20,-12 -28,-23 -25,-33 4,-8 9,-26 13,-41 l 6,-26 -32,24 -33,23 -30,-23 c -36,-27 -41,-23 -27,20 11,31 10,34 -14,52 -36,26 -34,35 7,30 33,-4 35,-2 47,38 l 13,43 18,-43 c 17,-41 20,-42 53,-37 z m 3660,47 c 6,-27 10,-30 46,-30 21,0 39,-2 39,-5 0,-3 -12,-16 -27,-29 -25,-22 -26,-26 -16,-60 13,-42 12,-43 -27,-15 l -28,22 -30,-22 c -41,-29 -43,-27 -28,17 13,37 13,39 -15,58 -39,26 -36,36 8,32 34,-3 38,0 47,30 11,40 22,41 31,2 z M 508,1781 c 7,-21 12,-43 12,-48 0,-6 -25,-23 -55,-39 l -55,-29 66,-5 67,-5 14,-39 c 7,-22 11,-41 8,-44 -11,-11 -199,-61 -206,-55 -4,5 -9,17 -11,27 -2,16 9,23 72,40 l 75,21 -85,5 c -83,5 -85,6 -88,32 -3,23 5,31 63,63 36,21 65,39 63,41 -2,1 -34,-6 -72,-18 -57,-17 -70,-18 -77,-7 -19,29 -2,42 86,69 50,15 95,28 101,29 6,0 16,-16 22,-38 z m 3528,-15 c 33,-39 57,-57 83,-63 31,-8 36,-13 34,-37 -3,-37 -3,-37 -44,-26 -26,8 -49,6 -96,-6 -35,-9 -63,-20 -63,-24 0,-3 35,-21 78,-40 42,-18 79,-35 81,-37 2,-1 -1,-14 -7,-28 l -12,-25 -57,26 c -88,39 -91,39 -48,3 94,-80 88,-72 75,-100 l -12,-26 -76,13 c -42,8 -77,12 -78,11 -2,-2 27,-16 64,-32 37,-15 68,-29 70,-31 2,-1 -2,-13 -10,-27 l -13,-25 -62,28 c -99,45 -95,45 -125,-4 -23,-39 -25,-46 -12,-57 17,-14 20,-12 48,36 20,32 24,34 41,22 18,-14 18,-15 -5,-51 -20,-33 -21,-39 -8,-52 13,-13 18,-10 45,30 26,41 31,45 47,33 17,-13 16,-17 -24,-80 -23,-37 -45,-67 -49,-67 -5,0 -165,94 -180,106 -2,2 17,36 42,76 24,40 54,92 66,116 16,31 27,42 39,38 9,-3 40,-8 67,-11 l 50,-7 -52,38 c -29,22 -53,44 -53,50 0,6 14,41 30,78 28,62 32,66 70,72 22,4 40,9 40,12 0,3 -14,21 -31,38 -25,26 -30,38 -25,58 3,14 11,26 16,26 5,0 30,-24 56,-54 z M 592,1535 c 6,-14 9,-27 7,-29 -7,-7 -180,-86 -188,-86 -8,0 -34,51 -29,54 12,8 185,85 191,85 4,1 13,-10 19,-24 z m 37,-81 c 6,-15 10,-28 9,-29 -2,-2 -36,-19 -76,-39 l -72,-36 20,-40 c 24,-48 24,-47 1,-59 -16,-9 -23,-2 -56,60 -20,39 -35,72 -33,74 6,5 183,94 189,94 3,1 11,-11 18,-25 z m 85,-151 c 8,-16 40,-64 71,-107 54,-74 56,-80 39,-93 -16,-12 -21,-10 -39,14 l -22,26 -67,-48 c -65,-46 -67,-47 -86,-30 -11,10 -20,22 -20,26 0,4 32,30 70,57 l 70,49 -20,25 c -15,20 -16,28 -7,37 7,7 -28,-11 -76,-39 -49,-29 -90,-50 -91,-48 -2,1 -9,14 -16,27 -10,20 -10,25 1,32 8,4 48,28 89,53 41,25 78,45 82,45 4,1 14,-11 22,-26 z m 3077,-136 c 47,-32 63,-68 49,-111 -15,-45 -80,-128 -96,-122 -18,7 -163,120 -164,127 0,3 26,34 58,67 66,71 95,78 153,39 z M 903,1048 922,1023 870,920 818,817 793,842 c -20,21 -23,29 -15,45 8,15 5,26 -14,51 -21,26 -30,30 -54,26 -22,-5 -31,-2 -40,16 -6,12 -10,23 -8,25 9,8 204,73 212,71 6,-1 18,-14 29,-28 z m 2734,-94 104,-47 -23,-24 c -16,-18 -29,-22 -47,-18 -34,9 -85,-39 -70,-67 8,-15 7,-24 -7,-39 -9,-10 -20,-19 -24,-19 -8,0 -90,185 -90,203 0,10 39,57 48,57 3,0 51,-21 109,-46 z M 1081,868 c 16,-29 10,-57 -15,-73 -13,-8 -30,-13 -39,-9 -11,4 -14,1 -11,-13 2,-10 -6,-35 -19,-56 l -23,-38 -24,19 -24,20 19,35 c 16,30 17,38 5,52 -12,14 -16,13 -45,-15 l -31,-30 -21,22 -21,23 71,82 71,81 49,-41 c 27,-23 53,-49 58,-59 z m 2361,-9 c 20,-11 20,-11 -3,-35 -15,-16 -29,-22 -41,-18 -23,7 -48,-12 -48,-36 0,-29 49,-80 76,-80 23,0 49,31 36,44 -6,7 35,45 49,46 4,0 10,-11 13,-25 9,-34 -16,-78 -57,-104 -51,-32 -83,-27 -128,17 -65,66 -65,123 3,172 44,32 67,36 100,19 z M 1149,816 c 9,-11 11,-30 6,-61 l -6,-46 40,20 c 49,25 50,25 80,2 l 24,-18 -72,-28 c -51,-20 -82,-40 -102,-64 l -29,-35 -21,21 -22,21 21,30 c 15,21 23,52 28,110 6,72 9,80 24,72 9,-5 22,-16 29,-24 z m 2141,-157 91,-72 -28,-18 c -24,-16 -30,-17 -48,-5 -18,12 -25,11 -56,-8 -24,-15 -34,-27 -31,-40 4,-19 -21,-46 -43,-46 -7,0 -16,37 -24,93 -6,51 -14,102 -17,113 -3,13 4,24 23,36 15,9 31,17 36,17 4,1 48,-31 97,-70 z M 1445,634 c 75,-41 84,-48 75,-65 -10,-18 -13,-18 -39,-4 -34,17 -36,16 -80,-72 -17,-35 -34,-63 -37,-63 -4,0 -44,19 -51,24 -1,1 15,36 37,77 l 39,74 -25,20 c -17,14 -23,26 -19,38 4,9 9,17 11,17 2,0 42,-21 89,-46 z m 188,-79 c 70,-28 73,-31 58,-54 -8,-12 -16,-12 -53,2 -55,21 -58,21 -58,-2 0,-13 13,-24 40,-35 41,-16 45,-22 31,-44 -6,-11 -16,-10 -50,4 -36,14 -44,15 -52,3 -14,-22 -11,-25 36,-43 44,-17 59,-41 31,-52 -18,-7 -146,45 -146,59 0,27 75,197 84,193 6,-2 41,-16 79,-31 z m 1302,-57 c 15,-40 29,-74 30,-76 2,-2 20,4 41,13 41,17 64,14 64,-9 0,-14 -135,-74 -145,-65 -2,3 -22,47 -44,99 l -39,95 26,12 c 15,6 30,9 33,8 3,-2 18,-37 34,-77 z m -107,-48 c 34,-44 65,-86 68,-94 8,-22 -44,-30 -66,-11 -16,14 -24,15 -59,4 -32,-10 -41,-17 -41,-35 0,-21 -17,-34 -46,-34 -12,0 -14,10 -10,48 3,26 8,77 11,114 6,61 9,68 33,77 15,5 32,10 37,10 6,0 38,-36 73,-79 z m -993,45 c 33,-16 62,-62 48,-76 -14,-13 -61,2 -66,22 -6,24 -49,26 -68,3 -7,-9 -13,-37 -13,-62 -1,-42 2,-47 22,-50 13,-2 29,2 37,8 7,6 25,8 39,4 62,-15 3,-70 -66,-61 -81,11 -118,62 -98,137 22,83 86,112 165,75 z m 121,-23 c 7,-4 11,-25 10,-47 -1,-38 0,-40 32,-43 28,-3 32,0 32,22 0,39 10,56 35,56 35,0 38,-12 25,-98 -17,-124 -16,-122 -51,-122 -31,0 -31,0 -25,44 6,35 4,45 -9,50 -39,15 -53,7 -60,-34 -6,-36 -10,-40 -36,-40 -22,0 -29,5 -29,20 0,23 20,170 25,188 5,13 33,16 51,4 z m 654,-12 c 11,-11 20,-24 20,-29 0,-13 -64,-23 -68,-11 -6,17 -59,12 -66,-6 -8,-20 3,-84 17,-101 15,-20 58,-16 64,6 5,19 59,35 69,20 9,-16 -20,-59 -51,-74 -89,-41 -165,8 -165,107 0,73 36,106 118,107 29,1 48,-5 62,-19 z m -206,-47 c 3,-27 8,-76 12,-110 l 6,-63 h -35 -34 l -7,100 c -4,55 -5,104 -1,110 3,5 17,10 30,10 20,0 24,-6 29,-47 z m -170,-43 31,-75 3,78 3,77 h 29 c 34,0 34,0 23,-137 l -6,-83 h -41 -41 l -32,78 -32,77 v -62 c -1,-77 -7,-93 -37,-93 -24,0 -24,1 -24,111 v 110 l 47,-3 47,-3 z"
       id="path56" />
    <path
       d="m 2782,4017 c -22,-32 -22,-32 -2,-41 27,-12 32,-5 28,37 l -3,36 z"
       id="path58" />
    <path
       d="m 3282,3775 c -33,-42 -37,-65 -13,-88 17,-18 24,-19 46,-9 33,15 63,77 49,100 -18,28 -59,27 -82,-3 z"
       id="path60" />
    <path
       d="m 2645,3460 c -395,-5 -433,-7 -465,-24 -70,-37 -97,-76 -109,-155 -3,-25 -12,-47 -19,-47 -6,-1 -199,-2 -427,-3 l -415,-1 V 2154 c 0,-922 2,-1077 14,-1090 13,-12 87,-14 488,-12 l 472,3 8,43 c 9,55 40,105 75,123 23,11 121,15 512,19 l 485,5 -3,1093 c -2,997 -4,1095 -19,1113 -14,16 -28,19 -92,17 -41,-1 -268,-5 -505,-8 z m 573,-1097 2,-1072 -462,-3 c -459,-3 -463,-3 -505,-26 -47,-25 -89,-80 -99,-129 l -6,-32 -452,-3 c -248,-2 -455,0 -459,3 -4,3 -6,478 -5,1055 l 3,1049 430,3 430,2 2,50 c 2,55 19,94 56,128 52,49 77,51 587,49 l 475,-2 z"
       id="path62" />
    <path
       d="m 2572,3191 -23,-71 h -76 -75 l 60,-44 60,-45 -19,-62 c -11,-34 -17,-64 -15,-66 2,-2 26,12 54,31 27,20 54,36 59,36 5,0 34,-18 63,-40 29,-22 55,-40 56,-40 2,0 -8,32 -21,70 l -24,71 61,44 60,45 h -75 -75 l -24,71 -24,71 z m 46,-53 c 8,-29 7,-40 -4,-49 -12,-10 -14,-3 -14,41 0,60 3,61 18,8 z m -48,-54 c 12,-12 12,-14 -1,-14 -22,0 -82,21 -94,32 -6,7 6,8 35,3 25,-4 52,-13 60,-21 z m 150,2 c 0,-10 -71,-47 -80,-41 -18,11 -11,22 23,33 36,11 57,14 57,8 z m -172,-91 c -36,-51 -44,-53 -24,-4 17,40 25,49 42,49 9,0 1,-17 -18,-45 z m 127,-53 c -10,-10 -75,53 -75,72 1,17 7,14 39,-24 22,-25 38,-47 36,-48 z"
       id="path64" />
    <path
       d="m 1633,2745 c -27,-20 -21,-103 15,-210 28,-83 29,-91 14,-108 -9,-10 -22,-15 -29,-12 -7,3 -20,8 -28,11 -10,4 -22,-10 -41,-49 -24,-48 -32,-56 -63,-62 -55,-10 -151,-56 -162,-77 -23,-42 54,-99 174,-129 27,-6 52,-20 58,-30 10,-20 39,-25 54,-10 6,6 23,-2 43,-20 l 34,-30 -45,-102 c -53,-118 -67,-166 -67,-223 0,-117 118,-69 300,124 l 101,106 32,-40 c 62,-77 161,-175 207,-204 79,-51 120,-36 120,44 0,42 -41,176 -81,265 -16,35 -29,65 -29,66 0,2 30,6 68,9 83,9 223,41 260,60 105,54 70,112 -98,164 -36,11 -98,25 -137,32 -40,6 -73,13 -73,14 0,2 16,37 35,79 47,101 71,203 56,240 -25,64 -117,22 -264,-122 l -88,-86 -27,35 c -151,196 -288,302 -339,265 z m 133,-78 c 50,-37 144,-135 166,-172 5,-7 -11,-7 -48,-1 -43,8 -54,14 -54,29 0,17 -5,19 -39,13 -74,-11 -92,-23 -85,-51 3,-14 2,-25 -4,-25 -10,0 -49,110 -58,168 -8,49 9,82 40,82 13,0 50,-20 82,-43 z m 552,-72 c 4,-48 -9,-97 -50,-187 -34,-75 -34,-75 -143,-62 -44,6 -53,11 -78,47 l -29,40 74,74 c 93,94 153,135 193,131 27,-3 30,-7 33,-43 z m -353,-173 c 52,-35 95,-118 95,-181 0,-61 -38,-141 -83,-176 -43,-32 -126,-60 -140,-46 -18,18 1,38 41,45 75,11 142,95 142,176 0,81 -69,165 -144,177 -39,6 -51,16 -43,38 8,19 82,1 132,-33 z m -22,-90 c 35,-35 47,-104 27,-152 -28,-68 -123,-108 -190,-80 -123,51 -113,236 15,277 41,14 110,-8 148,-45 z m 275,-18 c 5,-4 -52,-104 -59,-104 -4,0 -23,27 -43,61 l -36,61 67,-7 c 38,-4 70,-9 71,-11 z m 189,-30 c 127,-31 195,-81 164,-118 -20,-24 -106,-55 -196,-71 -141,-24 -146,-23 -177,36 l -27,52 37,64 37,64 47,-5 c 27,-3 78,-13 115,-22 z m -823,-38 c -1,-37 -6,-51 -20,-59 -28,-15 -34,-29 -22,-50 9,-17 7,-18 -14,-12 -55,17 -127,55 -137,73 -8,16 -7,25 7,42 21,26 116,61 157,57 29,-2 30,-4 29,-51 z m 552,-53 c 7,-27 -52,-116 -81,-122 -16,-3 -16,0 4,32 12,19 26,61 33,92 10,53 13,56 25,39 8,-11 16,-29 19,-41 z m 44,-74 c 12,-23 19,-43 17,-46 -3,-2 -25,-3 -51,-1 l -45,3 27,42 c 15,24 28,43 29,43 2,0 12,-18 23,-41 z m 90,-187 c 48,-119 60,-215 29,-235 -34,-22 -129,46 -235,171 l -63,74 40,54 41,53 61,3 c 34,2 67,0 73,-5 6,-4 31,-56 54,-115 z m -220,111 c 0,-5 -14,-24 -30,-43 -28,-34 -30,-34 -47,-17 -17,17 -17,18 12,42 29,23 65,33 65,18 z m -80,-100 c 0,-17 -176,-199 -226,-233 -79,-55 -124,-49 -124,17 0,37 31,135 60,194 l 20,37 55,-14 c 61,-16 75,-13 75,17 0,15 7,19 33,20 17,0 41,4 52,9 15,6 24,2 37,-14 10,-11 18,-26 18,-33 z"
       id="path66" />
    <path
       d="m 1785,2360 c -55,-22 -89,-93 -75,-155 10,-44 34,-73 77,-91 41,-18 43,-18 43,5 0,11 -12,23 -29,31 -28,11 -61,61 -61,92 0,26 40,78 65,84 16,4 25,13 25,25 0,20 -13,23 -45,9 z"
       id="path68" />
    <path
       d="m 1840,2307 c 0,-12 9,-28 20,-35 11,-7 20,-23 20,-37 0,-14 -8,-29 -20,-35 -12,-6 -20,-21 -20,-36 0,-22 3,-24 23,-19 38,11 67,52 67,95 0,30 -6,43 -31,64 -38,32 -59,33 -59,3 z"
       id="path70" />
    <path
       d="m 3691,3394 c -30,-12 -32,-16 -20,-32 7,-9 14,-18 15,-20 1,-2 12,11 24,28 12,17 21,33 19,35 -2,2 -19,-3 -38,-11 z"
       id="path72" />
    <path
       d="m 420,2851 c -16,-31 -12,-40 23,-61 46,-29 85,-26 99,6 11,24 9,29 -15,50 -35,30 -92,33 -107,5 z"
       id="path74" />
    <path
       d="m 3694,1120 c -23,-9 -39,-39 -27,-50 4,-3 27,-21 50,-39 l 42,-32 16,30 c 18,37 6,73 -32,90 -13,6 -25,11 -26,10 -1,0 -11,-4 -23,-9 z"
       id="path76" />
    <path
       d="m 812,1002 c -31,-17 -32,-19 -15,-34 17,-16 20,-15 41,18 25,38 21,41 -26,16 z"
       id="path78" />
    <path
       d="m 3540,925 c 0,-4 7,-20 16,-36 15,-30 16,-30 35,-13 24,22 24,21 -11,39 -31,16 -40,18 -40,10 z"
       id="path80" />
    <path
       d="m 977,872 c -16,-18 -16,-19 8,-32 20,-11 28,-11 37,-2 10,10 8,17 -8,32 -20,20 -21,20 -37,2 z"
       id="path82" />
    <path
       d="m 3193,639 c 4,-13 7,-30 7,-36 0,-16 12,-16 34,0 16,11 14,14 -15,36 l -32,24 z"
       id="path84" />
    <path
       d="m 2740,427 c 0,-31 3,-38 17,-35 24,4 25,20 3,48 l -20,25 z"
       id="path86" />
  </g>
</svg>
